<svg version="1.1" id="Layer_1" xmlns="http://www.w3.org/2000/svg" xmlns:xlink="http://www.w3.org/1999/xlink" x="0px" y="0px"
	 width="100%" viewBox="0 0 300 300" enable-background="new 0 0 300 300" xml:space="preserve">
<path fill="#1B4672" opacity="1.000000" stroke="none" 
	d="
M301.000000,109.000000 
	C301.000000,173.333328 301.000000,237.166641 301.000000,301.000000 
	C201.000031,301.000000 101.000061,301.000000 1.000066,301.000000 
	C1.000044,201.000046 1.000044,101.000092 1.000022,1.000106 
	C100.999939,1.000071 200.999878,1.000071 300.999908,1.000035 
	C301.000000,36.833332 301.000000,72.666664 301.000000,109.000000 
M106.949081,187.407089 
	C92.433632,158.225983 93.698624,129.820084 113.112404,103.521812 
	C137.837173,70.029144 190.620087,77.585953 205.018814,108.989166 
	C205.350952,109.713524 205.931778,110.323830 206.636902,111.330345 
	C212.432831,107.565208 218.062424,103.908119 224.515640,99.715988 
	C220.070541,93.847488 216.636261,88.272018 212.212296,83.642242 
	C183.930161,54.044369 132.434982,54.333939 102.079918,84.045113 
	C67.789551,117.608131 65.878265,172.806412 97.689804,210.833069 
	C127.088890,245.975967 177.324509,249.974655 211.957779,219.915497 
	C218.456116,214.275436 223.508652,207.589218 226.985733,199.065750 
	C220.842285,195.711075 214.913010,192.473328 208.840897,189.157593 
	C208.147614,190.185516 207.641846,190.829285 207.247650,191.535339 
	C196.530243,210.731934 179.433945,219.525604 158.201141,219.710251 
	C134.962509,219.912323 118.832008,207.355515 106.949081,187.407089 
M267.037750,176.500000 
	C267.037720,132.690689 267.038147,88.881378 267.035950,45.072071 
	C267.035858,43.406479 267.551178,41.461514 266.869202,40.141090 
	C265.858398,38.184021 264.088989,35.372189 262.465729,35.248707 
	C259.482422,35.021782 256.253296,36.224606 253.414810,37.481979 
	C252.875366,37.720940 253.030884,42.115498 253.959366,42.633888 
	C257.990631,44.884594 257.208008,48.402058 257.270905,51.802963 
	C257.280151,52.302521 257.288361,52.802990 257.269867,53.302029 
	C257.031342,59.743107 256.787964,66.184006 256.545807,72.624947 
	C250.121857,72.917137 243.699478,73.253044 237.273300,73.482567 
	C234.190948,73.592644 231.101425,73.501526 227.624481,73.501526 
	C230.853348,80.612190 234.933685,84.620850 242.553726,83.254936 
	C245.135941,82.792068 247.871002,83.177452 250.536194,83.182838 
	C257.255371,83.196426 257.268524,83.198166 257.269806,90.054657 
	C257.276733,127.200974 257.280731,164.347290 257.272339,201.493607 
	C257.271545,205.061493 257.695282,208.685272 262.186890,208.685333 
	C266.703857,208.685394 267.066071,205.061356 267.047180,201.486786 
	C267.004944,193.491394 267.036346,185.495621 267.037750,176.500000 
M58.500237,34.859642 
	C52.670643,34.865170 46.841019,34.883396 41.011463,34.871227 
	C37.767056,34.864456 35.233315,36.086792 35.107552,39.566898 
	C34.873158,46.053074 34.698616,52.581482 35.246159,59.028873 
	C35.390705,60.730972 38.308842,63.480019 39.874336,63.426720 
	C41.516903,63.370800 43.751339,60.780178 44.471802,58.832863 
	C45.288021,56.626740 44.723766,53.904812 44.735382,51.407040 
	C44.766956,44.616371 44.761856,44.593018 51.603153,44.591988 
	C102.737228,44.584286 153.871292,44.593979 205.005371,44.570526 
	C208.790253,44.568790 213.651443,45.201027 213.603851,39.643940 
	C213.556046,34.061920 208.661652,34.876530 204.907471,34.874817 
	C156.438354,34.852684 107.969246,34.859848 58.500237,34.859642 
M44.732712,201.500092 
	C44.732635,171.697372 44.736469,141.894653 44.722980,112.091934 
	C44.722153,110.264931 45.189445,108.068703 44.356911,106.704697 
	C43.320984,105.007462 41.217209,103.093193 39.464851,102.980591 
	C38.095562,102.892609 36.073265,105.167633 35.241844,106.840370 
	C34.503567,108.325699 34.964352,110.426888 34.964058,112.256248 
	C34.956608,158.875015 34.983017,205.493805 34.944229,252.112534 
	C34.931168,267.811462 33.976135,267.099487 49.894360,266.934052 
	C53.758331,266.893921 58.920795,267.901123 58.844673,261.919037 
	C58.773872,256.355286 53.815163,256.929169 50.117897,257.248138 
	C45.434353,257.652191 44.613995,255.561020 44.659912,251.448975 
	C44.842083,235.134445 44.733452,218.816681 44.732712,201.500092 
M262.414978,247.707321 
	C256.370514,247.940308 257.886169,253.190811 256.537109,257.157654 
	C254.258728,257.157654 251.963760,257.157654 249.668793,257.157684 
	C202.175034,257.157867 154.681274,257.143402 107.187561,257.185638 
	C103.341599,257.189087 98.095612,256.148560 98.142670,262.105530 
	C98.189644,268.051300 103.455658,266.920776 107.279549,266.924347 
	C156.606354,266.970428 205.933212,266.955444 255.260056,266.954987 
	C267.096344,266.954865 267.197815,266.826996 267.052734,254.926315 
	C267.014709,251.807480 266.963501,248.795639 262.414978,247.707321 
M150.871323,157.865845 
	C150.907715,171.187805 151.127487,184.513138 150.881226,197.829880 
	C150.794876,202.500900 153.607773,202.267395 156.616196,202.586761 
	C160.074142,202.953888 160.804169,201.191010 160.796844,198.135040 
	C160.737671,173.487930 160.813019,148.840515 160.779053,124.193291 
	C160.771255,118.538841 159.241791,117.046448 153.676193,117.001373 
	C145.682983,116.936630 137.688843,116.971069 129.695129,116.983452 
	C123.527237,116.993011 120.945045,119.677025 120.602592,126.825043 
	C126.092293,126.825043 131.566238,126.825050 137.040192,126.825050 
	C151.372543,126.825043 151.272400,126.823479 151.044998,141.435486 
	C150.991776,144.855011 150.012833,146.129456 146.490707,146.057785 
	C137.335114,145.871536 128.169617,146.151077 119.015190,145.938461 
	C115.122253,145.848038 114.746536,147.823120 114.764801,150.889847 
	C114.783012,153.945953 115.175926,155.947495 119.050964,155.856628 
	C127.872437,155.649765 136.703018,155.737686 145.527954,155.853531 
	C147.241104,155.876038 148.945450,156.569351 150.871323,157.865845 
M231.139404,146.045273 
	C234.619049,146.136108 237.855438,145.376968 237.814468,141.197784 
	C237.770157,136.676132 234.184113,136.277298 230.641006,136.278168 
	C216.506653,136.281631 202.372299,136.268677 188.237946,136.279938 
	C185.412857,136.282196 182.375076,135.743729 179.833450,136.615341 
	C177.967422,137.255280 175.809235,139.670090 175.570892,141.523987 
	C175.406647,142.801422 178.135574,144.732590 179.897675,145.863174 
	C180.851929,146.475433 182.489761,146.045700 183.819244,146.046158 
	C199.283890,146.051437 214.748550,146.049118 231.139404,146.045273 
M229.508820,63.918652 
	C233.171799,63.916500 236.835236,63.877533 240.497635,63.922577 
	C244.142517,63.967407 247.606018,63.314499 247.499863,58.838055 
	C247.401978,54.710331 244.073120,54.100189 240.626022,54.109241 
	C229.137650,54.139420 217.649124,54.108673 206.160751,54.137218 
	C205.338470,54.139263 204.516907,54.431576 203.473389,54.631351 
	C210.960052,60.993183 218.531631,65.819992 229.508820,63.918652 
M128.385773,180.981873 
	C124.992088,185.091049 125.247108,185.898056 132.497772,191.632950 
	C134.892365,188.920532 137.900330,186.366486 139.698441,183.138535 
	C140.687378,181.363220 140.482895,177.884567 139.330154,176.177689 
	C137.139984,172.934677 133.886261,170.408539 131.065948,167.593002 
	C128.792191,165.323074 126.177841,164.375259 123.627113,166.833206 
	C120.831902,169.526749 122.064621,172.143143 124.343964,174.646423 
	C125.958069,176.419083 127.291534,178.447281 128.385773,180.981873 
M69.457481,198.910324 
	C67.910316,195.543060 66.363152,192.175797 64.815987,188.808548 
	C64.008713,195.607391 63.725487,202.198441 64.199821,208.734512 
	C64.324707,210.455368 66.521423,212.907547 68.246788,213.425858 
	C70.896851,214.221954 73.962349,213.635117 77.575539,213.635117 
	C74.704147,208.440277 72.253860,204.007294 69.457481,198.910324 
M60.048378,63.895565 
	C63.036053,63.871628 66.209351,64.452888 68.946846,63.613266 
	C70.805069,63.043327 73.011162,60.603584 73.248322,58.766006 
	C73.417778,57.453037 70.817711,54.949848 69.024391,54.414249 
	C66.425262,53.637978 63.313610,53.642143 60.656040,54.285725 
	C58.429047,54.825043 55.456333,56.333927 54.740864,58.166050 
	C53.508183,61.322617 55.928658,63.312626 60.048378,63.895565 
M37.993107,87.561218 
	C41.452621,87.774239 49.168545,82.489548 49.030067,79.303581 
	C48.947365,77.400734 46.897232,74.136215 45.530506,74.028259 
	C42.383507,73.779686 37.584522,74.041908 36.247322,76.001610 
	C34.170918,79.044647 33.583321,83.776192 37.993107,87.561218 
M193.317856,122.909637 
	C190.859787,116.316315 185.364212,116.186783 179.921890,117.266724 
	C178.120377,117.624207 175.828400,120.196236 175.559570,122.020798 
	C175.365189,123.340042 178.015381,126.271774 179.616135,126.443680 
	C184.920120,127.013298 190.323349,126.658745 196.589813,126.658745 
	C195.213898,125.057587 194.502686,124.229935 193.317856,122.909637 
M187.783096,186.078766 
	C187.848740,182.948059 187.258408,179.567673 188.307495,176.811279 
	C188.718964,175.730148 192.828049,176.169205 195.205231,175.682068 
	C196.686737,175.378479 198.078583,174.637268 199.876251,173.953369 
	C194.533020,168.709137 188.012802,168.821152 183.856735,173.460587 
	C179.200729,178.658096 180.151108,186.379730 186.887527,191.438538 
	C187.388199,189.625397 187.787155,188.180588 187.783096,186.078766 
M257.436096,227.723572 
	C258.552551,232.207443 261.090668,234.232162 263.967316,232.459183 
	C265.370117,231.594589 266.806000,229.354813 266.689240,227.857407 
	C266.573578,226.373260 264.389679,223.793564 263.352692,223.906006 
	C261.343750,224.123825 259.503113,225.893982 257.436096,227.723572 
M75.773117,265.960846 
	C79.049126,267.707703 81.987114,266.962952 82.755440,263.459747 
	C83.125420,261.772797 81.339615,259.153015 79.811783,257.722961 
	C79.145302,257.099121 75.551033,258.023071 75.252960,258.907135 
	C74.585030,260.888245 75.149139,263.284790 75.773117,265.960846 
M103.013863,54.144791 
	C97.240112,55.981239 96.360374,58.583912 100.411507,62.764507 
	C104.330345,60.244312 108.291931,57.696629 112.253517,55.148945 
	C112.083969,54.803802 111.914429,54.458664 111.744888,54.113525 
	C109.119965,54.113525 106.495033,54.113525 103.013863,54.144791 
M68.563614,83.070641 
	C72.218460,82.814697 74.106209,80.825027 73.342041,77.243355 
	C72.687218,74.174225 70.194206,72.862091 67.329117,74.023705 
	C65.951134,74.582397 64.082565,76.785355 64.312561,77.830986 
	C64.725800,79.709686 66.554298,81.277077 68.563614,83.070641 
M230.717377,43.760159 
	C232.785400,43.363552 235.106400,43.395649 236.813843,42.388027 
	C237.657333,41.890263 237.956100,39.253704 237.473694,37.971523 
	C236.383667,35.074352 233.764496,33.989799 231.062592,35.549427 
	C227.656601,37.515488 227.503799,40.389423 230.717377,43.760159 
z"/>
<path fill="#71D6FC" opacity="1.000000" stroke="none" 
	d="
M107.118866,187.735352 
	C118.832008,207.355515 134.962509,219.912323 158.201141,219.710251 
	C179.433945,219.525604 196.530243,210.731934 207.247650,191.535339 
	C207.641846,190.829285 208.147614,190.185516 208.840897,189.157593 
	C214.913010,192.473328 220.842285,195.711075 226.985733,199.065750 
	C223.508652,207.589218 218.456116,214.275436 211.957779,219.915497 
	C177.324509,249.974655 127.088890,245.975967 97.689804,210.833069 
	C65.878265,172.806412 67.789551,117.608131 102.079918,84.045113 
	C132.434982,54.333939 183.930161,54.044369 212.212296,83.642242 
	C216.636261,88.272018 220.070541,93.847488 224.515640,99.715988 
	C218.062424,103.908119 212.432831,107.565208 206.636902,111.330345 
	C205.931778,110.323830 205.350952,109.713524 205.018814,108.989166 
	C190.620087,77.585953 137.837173,70.029144 113.112404,103.521812 
	C93.698624,129.820084 92.433632,158.225983 107.118866,187.735352 
z"/>
<path fill="#0FE0B5" opacity="1.000000" stroke="none" 
	d="
M267.037750,177.000000 
	C267.036346,185.495621 267.004944,193.491394 267.047180,201.486786 
	C267.066071,205.061356 266.703857,208.685394 262.186890,208.685333 
	C257.695282,208.685272 257.271545,205.061493 257.272339,201.493607 
	C257.280731,164.347290 257.276733,127.200974 257.269806,90.054657 
	C257.268524,83.198166 257.255371,83.196426 250.536194,83.182838 
	C247.871002,83.177452 245.135941,82.792068 242.553726,83.254936 
	C234.933685,84.620850 230.853348,80.612190 227.624481,73.501526 
	C231.101425,73.501526 234.190948,73.592644 237.273300,73.482567 
	C243.699478,73.253044 250.121857,72.917137 256.545807,72.624947 
	C256.787964,66.184006 257.031342,59.743107 257.269867,53.302029 
	C257.288361,52.802990 257.280151,52.302521 257.270905,51.802963 
	C257.208008,48.402058 257.990631,44.884594 253.959366,42.633888 
	C253.030884,42.115498 252.875366,37.720940 253.414810,37.481979 
	C256.253296,36.224606 259.482422,35.021782 262.465729,35.248707 
	C264.088989,35.372189 265.858398,38.184021 266.869202,40.141090 
	C267.551178,41.461514 267.035858,43.406479 267.035950,45.072071 
	C267.038147,88.881378 267.037720,132.690689 267.037750,177.000000 
z"/>
<path fill="#0FDEB4" opacity="1.000000" stroke="none" 
	d="
M59.000183,34.859627 
	C107.969246,34.859848 156.438354,34.852684 204.907471,34.874817 
	C208.661652,34.876530 213.556046,34.061920 213.603851,39.643940 
	C213.651443,45.201027 208.790253,44.568790 205.005371,44.570526 
	C153.871292,44.593979 102.737228,44.584286 51.603153,44.591988 
	C44.761856,44.593018 44.766956,44.616371 44.735382,51.407040 
	C44.723766,53.904812 45.288021,56.626740 44.471802,58.832863 
	C43.751339,60.780178 41.516903,63.370800 39.874336,63.426720 
	C38.308842,63.480019 35.390705,60.730972 35.246159,59.028873 
	C34.698616,52.581482 34.873158,46.053074 35.107552,39.566898 
	C35.233315,36.086792 37.767056,34.864456 41.011463,34.871227 
	C46.841019,34.883396 52.670643,34.865170 59.000183,34.859627 
z"/>
<path fill="#0FDFB5" opacity="1.000000" stroke="none" 
	d="
M44.732651,202.000092 
	C44.733452,218.816681 44.842083,235.134445 44.659912,251.448975 
	C44.613995,255.561020 45.434353,257.652191 50.117897,257.248138 
	C53.815163,256.929169 58.773872,256.355286 58.844673,261.919037 
	C58.920795,267.901123 53.758331,266.893921 49.894360,266.934052 
	C33.976135,267.099487 34.931168,267.811462 34.944229,252.112534 
	C34.983017,205.493805 34.956608,158.875015 34.964058,112.256248 
	C34.964352,110.426888 34.503567,108.325699 35.241844,106.840370 
	C36.073265,105.167633 38.095562,102.892609 39.464851,102.980591 
	C41.217209,103.093193 43.320984,105.007462 44.356911,106.704697 
	C45.189445,108.068703 44.722153,110.264931 44.722980,112.091934 
	C44.736469,141.894653 44.732635,171.697372 44.732651,202.000092 
z"/>
<path fill="#0FDFB5" opacity="1.000000" stroke="none" 
	d="
M262.779205,247.751801 
	C266.963501,248.795639 267.014709,251.807480 267.052734,254.926315 
	C267.197815,266.826996 267.096344,266.954865 255.260056,266.954987 
	C205.933212,266.955444 156.606354,266.970428 107.279549,266.924347 
	C103.455658,266.920776 98.189644,268.051300 98.142670,262.105530 
	C98.095612,256.148560 103.341599,257.189087 107.187561,257.185638 
	C154.681274,257.143402 202.175034,257.157867 249.668793,257.157684 
	C251.963760,257.157654 254.258728,257.157654 256.537109,257.157654 
	C257.886169,253.190811 256.370514,247.940308 262.779205,247.751801 
z"/>
<path fill="#0FDFB5" opacity="1.000000" stroke="none" 
	d="
M150.762589,157.409531 
	C148.945450,156.569351 147.241104,155.876038 145.527954,155.853531 
	C136.703018,155.737686 127.872437,155.649765 119.050964,155.856628 
	C115.175926,155.947495 114.783012,153.945953 114.764801,150.889847 
	C114.746536,147.823120 115.122253,145.848038 119.015190,145.938461 
	C128.169617,146.151077 137.335114,145.871536 146.490707,146.057785 
	C150.012833,146.129456 150.991776,144.855011 151.044998,141.435486 
	C151.272400,126.823479 151.372543,126.825043 137.040192,126.825050 
	C131.566238,126.825050 126.092293,126.825043 120.602592,126.825043 
	C120.945045,119.677025 123.527237,116.993011 129.695129,116.983452 
	C137.688843,116.971069 145.682983,116.936630 153.676193,117.001373 
	C159.241791,117.046448 160.771255,118.538841 160.779053,124.193291 
	C160.813019,148.840515 160.737671,173.487930 160.796844,198.135040 
	C160.804169,201.191010 160.074142,202.953888 156.616196,202.586761 
	C153.607773,202.267395 150.794876,202.500900 150.881226,197.829880 
	C151.127487,184.513138 150.907715,171.187805 150.762589,157.409531 
z"/>
<path fill="#0FDEB4" opacity="1.000000" stroke="none" 
	d="
M230.676300,146.047028 
	C214.748550,146.049118 199.283890,146.051437 183.819244,146.046158 
	C182.489761,146.045700 180.851929,146.475433 179.897675,145.863174 
	C178.135574,144.732590 175.406647,142.801422 175.570892,141.523987 
	C175.809235,139.670090 177.967422,137.255280 179.833450,136.615341 
	C182.375076,135.743729 185.412857,136.282196 188.237946,136.279938 
	C202.372299,136.268677 216.506653,136.281631 230.641006,136.278168 
	C234.184113,136.277298 237.770157,136.676132 237.814468,141.197784 
	C237.855438,145.376968 234.619049,146.136108 230.676300,146.047028 
z"/>
<path fill="#0FDDB4" opacity="1.000000" stroke="none" 
	d="
M229.014297,63.918640 
	C218.531631,65.819992 210.960052,60.993183 203.473389,54.631351 
	C204.516907,54.431576 205.338470,54.139263 206.160751,54.137218 
	C217.649124,54.108673 229.137650,54.139420 240.626022,54.109241 
	C244.073120,54.100189 247.401978,54.710331 247.499863,58.838055 
	C247.606018,63.314499 244.142517,63.967407 240.497635,63.922577 
	C236.835236,63.877533 233.171799,63.916500 229.014297,63.918640 
z"/>
<path fill="#0FDFB5" opacity="1.000000" stroke="none" 
	d="
M128.568024,180.671646 
	C127.291534,178.447281 125.958069,176.419083 124.343964,174.646423 
	C122.064621,172.143143 120.831902,169.526749 123.627113,166.833206 
	C126.177841,164.375259 128.792191,165.323074 131.065948,167.593002 
	C133.886261,170.408539 137.139984,172.934677 139.330154,176.177689 
	C140.482895,177.884567 140.687378,181.363220 139.698441,183.138535 
	C137.900330,186.366486 134.892365,188.920532 132.497772,191.632950 
	C125.247108,185.898056 124.992088,185.091049 128.568024,180.671646 
z"/>
<path fill="#0FDCB3" opacity="1.000000" stroke="none" 
	d="
M69.630524,199.242310 
	C72.253860,204.007294 74.704147,208.440277 77.575539,213.635117 
	C73.962349,213.635117 70.896851,214.221954 68.246788,213.425858 
	C66.521423,212.907547 64.324707,210.455368 64.199821,208.734512 
	C63.725487,202.198441 64.008713,195.607391 64.815987,188.808548 
	C66.363152,192.175797 67.910316,195.543060 69.630524,199.242310 
z"/>
<path fill="#0FDCB4" opacity="1.000000" stroke="none" 
	d="
M59.624008,63.875431 
	C55.928658,63.312626 53.508183,61.322617 54.740864,58.166050 
	C55.456333,56.333927 58.429047,54.825043 60.656040,54.285725 
	C63.313610,53.642143 66.425262,53.637978 69.024391,54.414249 
	C70.817711,54.949848 73.417778,57.453037 73.248322,58.766006 
	C73.011162,60.603584 70.805069,63.043327 68.946846,63.613266 
	C66.209351,64.452888 63.036053,63.871628 59.624008,63.875431 
z"/>
<path fill="#0EE0B5" opacity="1.000000" stroke="none" 
	d="
M37.650398,87.370575 
	C33.583321,83.776192 34.170918,79.044647 36.247322,76.001610 
	C37.584522,74.041908 42.383507,73.779686 45.530506,74.028259 
	C46.897232,74.136215 48.947365,77.400734 49.030067,79.303581 
	C49.168545,82.489548 41.452621,87.774239 37.650398,87.370575 
z"/>
<path fill="#0FDBB3" opacity="1.000000" stroke="none" 
	d="
M193.554657,123.155960 
	C194.502686,124.229935 195.213898,125.057587 196.589813,126.658745 
	C190.323349,126.658745 184.920120,127.013298 179.616135,126.443680 
	C178.015381,126.271774 175.365189,123.340042 175.559570,122.020798 
	C175.828400,120.196236 178.120377,117.624207 179.921890,117.266724 
	C185.364212,116.186783 190.859787,116.316315 193.554657,123.155960 
z"/>
<path fill="#0FDBB3" opacity="1.000000" stroke="none" 
	d="
M187.984604,186.407272 
	C187.787155,188.180588 187.388199,189.625397 186.887527,191.438538 
	C180.151108,186.379730 179.200729,178.658096 183.856735,173.460587 
	C188.012802,168.821152 194.533020,168.709137 199.876251,173.953369 
	C198.078583,174.637268 196.686737,175.378479 195.205231,175.682068 
	C192.828049,176.169205 188.718964,175.730148 188.307495,176.811279 
	C187.258408,179.567673 187.848740,182.948059 187.984604,186.407272 
z"/>
<path fill="#0FDCB3" opacity="1.000000" stroke="none" 
	d="
M257.514404,227.372208 
	C259.503113,225.893982 261.343750,224.123825 263.352692,223.906006 
	C264.389679,223.793564 266.573578,226.373260 266.689240,227.857407 
	C266.806000,229.354813 265.370117,231.594589 263.967316,232.459183 
	C261.090668,234.232162 258.552551,232.207443 257.514404,227.372208 
z"/>
<path fill="#0FDBB3" opacity="1.000000" stroke="none" 
	d="
M75.492340,265.736511 
	C75.149139,263.284790 74.585030,260.888245 75.252960,258.907135 
	C75.551033,258.023071 79.145302,257.099121 79.811783,257.722961 
	C81.339615,259.153015 83.125420,261.772797 82.755440,263.459747 
	C81.987114,266.962952 79.049126,267.707703 75.492340,265.736511 
z"/>
<path fill="#0FD9B2" opacity="1.000000" stroke="none" 
	d="
M103.441986,54.129158 
	C106.495033,54.113525 109.119965,54.113525 111.744888,54.113525 
	C111.914429,54.458664 112.083969,54.803802 112.253517,55.148945 
	C108.291931,57.696629 104.330345,60.244312 100.411507,62.764507 
	C96.360374,58.583912 97.240112,55.981239 103.441986,54.129158 
z"/>
<path fill="#0FDBB3" opacity="1.000000" stroke="none" 
	d="
M68.177536,83.022598 
	C66.554298,81.277077 64.725800,79.709686 64.312561,77.830986 
	C64.082565,76.785355 65.951134,74.582397 67.329117,74.023705 
	C70.194206,72.862091 72.687218,74.174225 73.342041,77.243355 
	C74.106209,80.825027 72.218460,82.814697 68.177536,83.022598 
z"/>
<path fill="#0FDCB3" opacity="1.000000" stroke="none" 
	d="
M230.431976,43.548016 
	C227.503799,40.389423 227.656601,37.515488 231.062592,35.549427 
	C233.764496,33.989799 236.383667,35.074352 237.473694,37.971523 
	C237.956100,39.253704 237.657333,41.890263 236.813843,42.388027 
	C235.106400,43.395649 232.785400,43.363552 230.431976,43.548016 
z"/>
</svg>